# xmcd
#
# Track frame offsets:
#	150
#	17619
#	32466
#	46905
#	65303
#	80744
#	95548
#	112034
#	126709
#
# Disc length: 1888 seconds
#
# Revision: 1
# Processed by: cddbd v1.5.2PL0 Copyright (c) Steve Scherf et al.
# Submitted via: audiograbber 1.83.01
#
DISCID=74075e09
DTITLE=Various Artist - CDX 577
DYEAR=2013
DGENRE=Country
TTITLE0=Vince Gill and Paul Franklin - Branded Man
TTITLE1=Jake Owen - Days Of Gold (Single Edit)
TTITLE2=American Young - Love Is War
TTITLE3=Jennifer Nettles - That Girl
TTITLE4=Vince Gill and Paul Franklin - The Bottle Let Me Down
TTITLE5=Derek Anthony - Cowboy Way
TTITLE6=Ryan Broshear - Make Each Moment Last
TTITLE7=Jamie Stever - Make My Day
TTITLE8=Kinsey Sadler - The Young And The Reckless
EXTD=
EXTT0=
EXTT1=
EXTT2=
EXTT3=
EXTT4=
EXTT5=
EXTT6=
EXTT7=
EXTT8=
PLAYORDER=
